<?xml version="1.0" encoding="iso-8859-1"?>
<!-- Uploaded to: SVG Repo, www.svgrepo.com, Generator: SVG Repo Mixer Tools -->
<svg version="1.1" id="Layer_1" xmlns="http://www.w3.org/2000/svg" xmlns:xlink="http://www.w3.org/1999/xlink" 
	 viewBox="0 0 512 512" xml:space="preserve">
<rect x="91.022" y="128.705" style="fill:#FFD69E;" width="331.093" height="254.862"/>
<g>
	<rect x="15.929" y="128.705" style="fill:#FFC16C;" width="86.471" height="266.24"/>
	<rect x="410.738" y="117.328" style="fill:#FFC16C;" width="86.471" height="277.618"/>
</g>
<g>
	<path style="fill:#9E6134;" d="M60.076,0C47.347,0,37.03,10.317,37.03,23.046c0,16.225,9.516,30.498,9.516,78.079l13.529,11.378
		l13.529-11.378c0-47.58,9.516-61.854,9.516-78.079C83.121,10.317,72.803,0,60.076,0z"/>
	<path style="fill:#9E6134;" d="M46.545,410.878c0,47.58-9.516,61.852-9.516,78.077c0,12.728,10.319,23.046,23.046,23.046
		s23.046-10.318,23.046-23.046c0-16.225-9.516-30.496-9.516-78.077L60.075,399.5L46.545,410.878z"/>
	<path style="fill:#9E6134;" d="M468.414,101.125c0-47.58,9.516-61.854,9.516-78.079C477.93,10.317,467.612,0,454.885,0
		c-12.727,0-23.046,10.317-23.046,23.046c0,16.225,9.516,30.498,9.516,78.079l13.529,11.378L468.414,101.125z"/>
	<path style="fill:#9E6134;" d="M441.354,410.878c0,47.58-9.516,61.852-9.516,78.077c0,12.728,10.319,23.046,23.046,23.046
		c12.727,0,23.046-10.318,23.046-23.046c0-16.225-9.516-30.496-9.516-78.077L454.884,399.5L441.354,410.878z"/>
</g>
<g>
	<path style="fill:#493123;" d="M353.44,188.786h-68.178c-5.027,0-9.102-4.076-9.102-9.102s4.076-9.102,9.102-9.102h68.178
		c5.027,0,9.102,4.076,9.102,9.102S358.467,188.786,353.44,188.786z"/>
	<path style="fill:#493123;" d="M353.44,239.758h-68.178c-5.027,0-9.102-4.076-9.102-9.102c0-5.027,4.076-9.102,9.102-9.102h68.178
		c5.027,0,9.102,4.076,9.102,9.102C362.543,235.683,358.467,239.758,353.44,239.758z"/>
	<path style="fill:#493123;" d="M353.44,290.731h-68.178c-5.027,0-9.102-4.076-9.102-9.102s4.076-9.102,9.102-9.102h68.178
		c5.027,0,9.102,4.076,9.102,9.102S358.467,290.731,353.44,290.731z"/>
	<path style="fill:#493123;" d="M353.44,341.703h-68.178c-5.027,0-9.102-4.076-9.102-9.102s4.076-9.102,9.102-9.102h68.178
		c5.027,0,9.102,4.076,9.102,9.102S358.467,341.703,353.44,341.703z"/>
	<path style="fill:#493123;" d="M227.876,188.786h-68.178c-5.027,0-9.102-4.076-9.102-9.102s4.076-9.102,9.102-9.102h68.178
		c5.027,0,9.102,4.076,9.102,9.102S232.903,188.786,227.876,188.786z"/>
	<path style="fill:#493123;" d="M227.876,239.758h-68.178c-5.027,0-9.102-4.076-9.102-9.102c0-5.027,4.076-9.102,9.102-9.102h68.178
		c5.027,0,9.102,4.076,9.102,9.102C236.979,235.683,232.903,239.758,227.876,239.758z"/>
	<path style="fill:#493123;" d="M227.876,290.731h-68.178c-5.027,0-9.102-4.076-9.102-9.102s4.076-9.102,9.102-9.102h68.178
		c5.027,0,9.102,4.076,9.102,9.102S232.903,290.731,227.876,290.731z"/>
	<path style="fill:#493123;" d="M227.876,341.703h-68.178c-5.027,0-9.102-4.076-9.102-9.102s4.076-9.102,9.102-9.102h68.178
		c5.027,0,9.102,4.076,9.102,9.102S232.903,341.703,227.876,341.703z"/>
</g>
<g>
	<path style="fill:#B2805C;" d="M117.191,117.778c0,6.038-4.895,10.933-10.933,10.933H10.933C4.895,128.711,0,123.816,0,117.778
		v-5.442c0-6.038,4.895-10.933,10.933-10.933h95.326c6.038,0,10.933,4.895,10.933,10.933v5.442H117.191z"/>
	<path style="fill:#B2805C;" d="M117.191,399.947c0,6.038-4.895,10.931-10.933,10.931H10.933C4.895,410.878,0,405.985,0,399.947
		v-5.442c0-6.038,4.895-10.933,10.933-10.933h95.326c6.038,0,10.933,4.895,10.933,10.933v5.442H117.191z"/>
	<path style="fill:#B2805C;" d="M512,117.778c0,6.038-4.895,10.933-10.933,10.933h-95.326c-6.038,0-10.933-4.895-10.933-10.933
		v-5.442c0-6.038,4.895-10.933,10.933-10.933h95.326c6.038,0,10.933,4.895,10.933,10.933V117.778z"/>
	<path style="fill:#B2805C;" d="M512,399.947c0,6.038-4.895,10.931-10.933,10.931h-95.326c-6.038,0-10.933-4.892-10.933-10.931
		v-5.442c0-6.038,4.895-10.933,10.933-10.933h95.326c6.038,0,10.933,4.895,10.933,10.933V399.947z"/>
</g>
</svg>